<svg width="93" height="92" viewBox="0 0 93 92" fill="none" xmlns="http://www.w3.org/2000/svg">
<path d="M92.5 46C92.5 71.4051 71.9051 92 46.5 92C21.0949 92 0.5 71.4051 0.5 46C0.5 20.5949 21.0949 0 46.5 0C71.9051 0 92.5 20.5949 92.5 46Z" fill="#F4F4F4"/>
<path fill-rule="evenodd" clip-rule="evenodd" d="M92.02 52.6696L87.7523 52.0498C88.0388 50.0769 88.1875 48.0571 88.1875 46C88.1875 43.9429 88.0388 41.9231 87.7523 39.9502L92.02 39.3304C92.3363 41.5079 92.5 43.7348 92.5 46C92.5 48.2652 92.3363 50.4921 92.02 52.6696ZM89.261 29.0111L85.2537 30.6046C83.7469 26.8152 81.699 23.2968 79.2037 20.1453L82.5848 17.4683C85.3367 20.944 87.5971 24.8266 89.261 29.0111ZM75.0317 9.9152L72.3547 13.2962C69.2032 10.801 65.6848 8.75308 61.8954 7.24626L63.4889 3.23895C67.6734 4.9029 71.556 7.1633 75.0317 9.9152ZM53.1696 0.479996L52.5498 4.74772C50.5769 4.46117 48.5571 4.3125 46.5 4.3125C44.4429 4.3125 42.4231 4.46117 40.4502 4.74772L39.8304 0.479997C42.0079 0.163729 44.2348 0 46.5 0C48.7652 0 50.9921 0.163728 53.1696 0.479996ZM29.5111 3.23896L31.1046 7.24626C27.3152 8.75309 23.7968 10.801 20.6453 13.2963L17.9683 9.91521C21.444 7.16331 25.3266 4.9029 29.5111 3.23896ZM10.4152 17.4683L13.7962 20.1453C11.301 23.2968 9.25308 26.8152 7.74626 30.6046L3.73895 29.0111C5.4029 24.8266 7.6633 20.944 10.4152 17.4683ZM0.979996 39.3304C0.663728 41.5079 0.5 43.7348 0.5 46C0.5 48.2652 0.663729 50.4921 0.979997 52.6696L5.24772 52.0498C4.96117 50.0769 4.8125 48.0571 4.8125 46C4.8125 43.9429 4.96117 41.9231 5.24772 39.9502L0.979996 39.3304ZM3.73896 62.9889L7.74626 61.3954C9.25309 65.1848 11.301 68.7032 13.7963 71.8547L10.4152 74.5317C7.66331 71.056 5.4029 67.1734 3.73896 62.9889ZM17.9683 82.0848L20.6453 78.7038C23.7968 81.199 27.3152 83.2469 31.1046 84.7537L29.5111 88.761C25.3266 87.0971 21.444 84.8367 17.9683 82.0848ZM39.8304 91.52L40.4502 87.2523C42.4231 87.5388 44.4429 87.6875 46.5 87.6875C48.5571 87.6875 50.5769 87.5388 52.5498 87.2523L53.1696 91.52C50.9921 91.8363 48.7652 92 46.5 92C44.2348 92 42.0079 91.8363 39.8304 91.52ZM63.4889 88.761L61.8954 84.7537C65.6848 83.2469 69.2032 81.199 72.3547 78.7037L75.0317 82.0848C71.556 84.8367 67.6734 87.0971 63.4889 88.761ZM82.5848 74.5317L79.2038 71.8547C81.699 68.7032 83.7469 65.1848 85.2537 61.3954L89.261 62.9889C87.5971 67.1734 85.3367 71.056 82.5848 74.5317Z" fill="#CFCFCF"/>
<path fill-rule="evenodd" clip-rule="evenodd" d="M43.9837 65.0457C43.9837 66.4351 45.11 67.5613 46.4993 67.5613C47.8886 67.5613 49.0149 66.4351 49.0149 65.0457V48.515H65.5457C66.9351 48.515 68.0613 47.3887 68.0613 45.9994C68.0613 44.6101 66.9351 43.4838 65.5457 43.4838H49.0149V26.9531C49.0149 25.5638 47.8886 24.4375 46.4993 24.4375C45.11 24.4375 43.9837 25.5638 43.9837 26.9531V43.4838H27.4531C26.0638 43.4838 24.9375 44.6101 24.9375 45.9994C24.9375 47.3887 26.0638 48.515 27.4531 48.515H43.9837V65.0457Z" fill="#CFCFCF"/>
</svg>
