<svg width="109" height="108" viewBox="0 0 109 108" fill="none" xmlns="http://www.w3.org/2000/svg">
<circle cx="54.5" cy="54" r="49.5" fill="#EA4335"/>
<path d="M78.3335 33.8706L78.3336 33.8705L78.3217 33.863C70.0308 28.6099 60.7793 26.4186 51.0835 26.2501L51.0835 26.25H51.0705C46.381 26.25 41.8208 26.7557 37.2475 28.2879L37.2475 28.2879L37.2397 28.2906C28.871 31.1983 23.0813 36.8796 20.7768 45.9735L20.7767 45.9735L20.7745 45.9828C20.6388 46.5484 20.3725 47.0865 20.0037 47.471L19.9802 47.4955L19.9591 47.5219C17.3697 50.7607 17.0199 55.9336 19.1043 59.3738L19.1091 59.3816L19.114 59.3892C19.2467 59.5968 19.3055 59.7431 19.3235 59.8651C19.3391 59.9714 19.3321 60.1124 19.2294 60.3266L19.1993 60.3893L19.1813 60.4565C18.5939 62.6431 18.5416 64.6965 19.0624 66.5966C19.5834 68.4972 20.6644 70.1955 22.2676 71.6917C24.2826 73.6157 26.6206 74.828 29.0834 75.6842C35.5691 78.0496 42.364 79.0579 49.2943 79.2258L49.3034 79.2261H49.3125H49.3655C53.3251 79.2261 57.4148 79.2261 61.3573 78.0275L61.424 78.0072L61.4423 77.9977C61.4656 78.0048 61.4992 78.0173 61.5472 78.0392C61.606 78.066 61.6683 78.0983 61.7515 78.1416L61.7825 78.1578L61.8149 78.171C65.5003 79.6742 69.2513 81.039 73.1886 81.552C75.797 81.8919 78.5284 81.9113 81.1205 80.6521C84.6105 79.0128 86.1438 75.9168 86.6491 72.2853C86.8069 71.6359 86.9205 71.4137 87.1384 71.2623L87.1472 71.2561L87.1559 71.2497C91.2787 68.2057 92.3245 63.3349 90.1251 58.8706C89.987 58.4277 89.871 57.9126 89.8588 57.5473C90.504 53.9454 90.1693 50.5082 89.0184 47.2482C87.035 41.2245 83.2307 37.1035 78.3335 33.8706Z" fill="white" stroke="white" stroke-width="1.5"/>
<path d="M89.4273 59.1517C89.2675 58.6519 89.1077 57.9856 89.1077 57.4858C89.747 53.9875 89.4273 50.6557 88.3086 47.4905C86.3908 41.6599 82.7149 37.6617 77.9203 34.4965C69.7695 29.3322 60.6597 27.1666 51.0705 27C46.4357 27 41.9608 27.4998 37.4858 28.9991C29.335 31.8311 23.7413 37.3285 21.5038 46.1578C21.344 46.8241 21.0243 47.4905 20.5449 47.9902C18.1476 50.9888 17.8279 55.8199 19.7458 58.9851C20.0654 59.4849 20.2252 59.9847 19.9056 60.651C18.7869 64.8158 19.7458 68.3141 22.7824 71.1461C24.7002 72.9786 26.9377 74.1447 29.335 74.9777C35.7278 77.3099 42.4402 78.3095 49.3125 78.4761C53.308 78.4761 57.3035 78.4761 61.1392 77.3099C61.4588 77.1434 61.7785 77.3099 62.0981 77.4765C65.774 78.9758 69.4498 80.3085 73.2855 80.8083C75.8426 81.1415 78.3998 81.1415 80.7971 79.9754C83.9935 78.4761 85.4318 75.6441 85.9113 72.1457C86.0711 71.4793 86.2309 70.9796 86.7104 70.6464C90.5461 67.8144 91.505 63.3164 89.4273 59.1517ZM82.7149 72.812C81.9158 75.6441 79.998 77.1434 77.1212 77.4765C73.765 77.6431 70.5686 76.9768 67.6918 75.8106C63.057 73.9782 58.5821 71.8125 53.9473 69.8134C50.9107 68.4807 47.7143 67.6478 44.3581 67.148C39.7233 66.4816 35.0885 66.3151 30.4537 66.6482C29.9743 66.6482 29.6546 66.8148 29.1752 66.8148C28.6957 66.8148 28.2162 66.8148 28.3761 67.4812C28.3761 67.8144 29.0153 67.9809 29.335 67.9809C31.093 68.1475 32.6912 68.1475 34.4492 68.3141C40.6822 68.8139 46.5956 69.98 52.1893 72.9786C52.8285 73.3118 53.4678 73.4784 54.2669 73.8116C54.9062 74.1447 55.5455 74.4779 56.1848 74.6445C51.8696 75.3109 47.5545 75.1443 43.2393 74.6445C38.6045 74.1447 34.1296 73.1452 29.8144 71.3127C28.2162 70.6464 26.618 69.6468 25.1797 68.4807C23.102 66.8148 22.6225 64.4826 23.2618 61.8171C23.2618 61.484 23.7413 61.1508 24.0609 61.1508C27.577 60.4844 31.2528 59.9847 34.7689 59.4849C37.326 59.1517 39.8831 59.3183 42.4402 59.3183C43.3992 59.3183 44.3581 59.4849 45.1572 59.8181C51.3902 61.9837 57.3035 64.8158 62.5776 68.9805C64.3356 70.4798 65.774 72.3123 67.532 73.9782C67.8516 74.3113 68.4909 74.6445 68.9704 74.6445C71.3677 74.4779 73.765 73.9782 76.0025 72.812C76.9614 72.3123 77.7605 71.6459 78.5596 70.9796C78.8792 70.813 79.039 70.1466 78.8792 69.8134C78.5596 69.3137 78.0801 69.6468 77.7605 69.8134C75.3632 71.6459 72.4864 71.8125 69.6096 71.8125C69.4498 71.8125 69.1302 71.6459 68.9704 71.4793C65.1347 66.8148 60.3401 63.483 55.066 60.8176C54.5866 60.651 54.1071 60.3178 53.7875 60.1513C53.7875 60.1513 53.6276 60.1513 53.6276 59.8181C55.3857 60.1513 57.1437 60.3178 58.9017 60.8176C67.0525 62.6501 74.8837 65.8153 81.9158 70.4798C83.0345 71.4793 83.0345 71.4793 82.7149 72.812ZM25.0198 49.1564C32.2117 48.1568 39.4037 47.9902 46.7554 48.3234C41.3215 50.3225 36.5269 53.4877 32.2117 57.6524C28.8555 55.4868 26.2984 52.9879 25.0198 49.1564ZM61.9383 49.9893C68.6507 51.6552 74.7239 53.9875 80.7971 57.3192C80.1578 59.1517 79.3587 60.8176 77.6007 61.8171C76.4819 62.4835 75.2034 62.3169 74.4043 61.3174C73.9248 60.651 73.4453 59.9847 72.9659 59.1517C71.5275 56.1531 69.29 54.6538 66.0936 54.6538C63.5365 54.4872 62.0981 52.9879 61.9383 49.9893ZM85.9113 55.9865C84.1533 54.987 82.3953 54.154 80.6372 53.1545C73.4453 49.4895 66.0936 46.9907 58.2624 45.658C53.4678 44.825 48.6732 44.4919 43.8786 44.4919C37.9653 44.4919 31.8921 44.6585 26.1386 45.3248C25.9788 45.3248 25.6591 45.3248 25.3395 45.3248C26.2984 42.3262 27.8966 39.6608 29.9743 37.4951C33.4903 33.9967 37.8055 31.9977 42.4402 31.1647C54.2669 28.9991 65.4543 30.8316 75.8426 37.1619C79.6783 39.4942 82.8747 42.6594 84.6327 46.8241C85.9113 49.8227 86.3908 52.8213 85.9113 55.9865Z" fill="black"/>
</svg>
