<svg width="92" height="92" viewBox="0 0 92 92" fill="none" xmlns="http://www.w3.org/2000/svg">
<path d="M92 46C92 71.4051 71.4051 92 46 92C20.5949 92 0 71.4051 0 46C0 20.5949 20.5949 0 46 0C71.4051 0 92 20.5949 92 46Z" fill="#EA4335" fill-opacity="0.16"/>
<path fill-rule="evenodd" clip-rule="evenodd" d="M91.52 52.6696L87.2523 52.0498C87.5388 50.0769 87.6875 48.0571 87.6875 46C87.6875 43.9429 87.5388 41.9231 87.2523 39.9502L91.52 39.3304C91.8363 41.5079 92 43.7348 92 46C92 48.2652 91.8363 50.4921 91.52 52.6696ZM88.761 29.0111L84.7537 30.6046C83.2469 26.8152 81.199 23.2968 78.7037 20.1453L82.0848 17.4683C84.8367 20.944 87.0971 24.8266 88.761 29.0111ZM74.5317 9.9152L71.8547 13.2962C68.7032 10.801 65.1848 8.75308 61.3954 7.24626L62.9889 3.23895C67.1734 4.9029 71.056 7.1633 74.5317 9.9152ZM52.6696 0.479996L52.0498 4.74772C50.0769 4.46117 48.0571 4.3125 46 4.3125C43.9429 4.3125 41.9231 4.46117 39.9502 4.74772L39.3304 0.479997C41.5079 0.163729 43.7348 0 46 0C48.2652 0 50.4921 0.163728 52.6696 0.479996ZM29.0111 3.23896L30.6046 7.24626C26.8152 8.75309 23.2968 10.801 20.1453 13.2963L17.4683 9.91521C20.944 7.16331 24.8266 4.9029 29.0111 3.23896ZM9.9152 17.4683L13.2962 20.1453C10.801 23.2968 8.75308 26.8152 7.24626 30.6046L3.23895 29.0111C4.9029 24.8266 7.1633 20.944 9.9152 17.4683ZM0.479996 39.3304C0.163728 41.5079 0 43.7348 0 46C0 48.2652 0.163729 50.4921 0.479997 52.6696L4.74772 52.0498C4.46117 50.0769 4.3125 48.0571 4.3125 46C4.3125 43.9429 4.46117 41.9231 4.74772 39.9502L0.479996 39.3304ZM3.23896 62.9889L7.24626 61.3954C8.75309 65.1848 10.801 68.7032 13.2963 71.8547L9.91521 74.5317C7.16331 71.056 4.9029 67.1734 3.23896 62.9889ZM17.4683 82.0848L20.1453 78.7038C23.2968 81.199 26.8152 83.2469 30.6046 84.7537L29.0111 88.761C24.8266 87.0971 20.944 84.8367 17.4683 82.0848ZM39.3304 91.52L39.9502 87.2523C41.9231 87.5388 43.9429 87.6875 46 87.6875C48.0571 87.6875 50.0769 87.5388 52.0498 87.2523L52.6696 91.52C50.4921 91.8363 48.2652 92 46 92C43.7348 92 41.5079 91.8363 39.3304 91.52ZM62.9889 88.761L61.3954 84.7537C65.1848 83.2469 68.7032 81.199 71.8547 78.7037L74.5317 82.0848C71.056 84.8367 67.1734 87.0971 62.9889 88.761ZM82.0848 74.5317L78.7038 71.8547C81.199 68.7032 83.2469 65.1848 84.7537 61.3954L88.761 62.9889C87.0971 67.1734 84.8367 71.056 82.0848 74.5317Z" fill="#EA4335"/>
<path fill-rule="evenodd" clip-rule="evenodd" d="M43.4837 65.0457C43.4837 66.4351 44.61 67.5613 45.9993 67.5613C47.3886 67.5613 48.5149 66.4351 48.5149 65.0457V48.515H65.0457C66.4351 48.515 67.5613 47.3887 67.5613 45.9994C67.5613 44.6101 66.4351 43.4838 65.0457 43.4838H48.5149V26.9531C48.5149 25.5638 47.3886 24.4375 45.9993 24.4375C44.61 24.4375 43.4837 25.5638 43.4837 26.9531V43.4838H26.9531C25.5638 43.4838 24.4375 44.6101 24.4375 45.9994C24.4375 47.3887 25.5638 48.515 26.9531 48.515H43.4837V65.0457Z" fill="#EA4335"/>
</svg>
