<svg width="48" height="48" viewBox="0 0 48 48" fill="none" xmlns="http://www.w3.org/2000/svg">
<path d="M48 24C48 37.2548 37.2548 48 24 48C10.7452 48 0 37.2548 0 24C0 10.7452 10.7452 0 24 0C37.2548 0 48 10.7452 48 24Z" fill="#2E2E2E"/>
<circle cx="24" cy="24" r="14.75" fill="#EA4335" stroke="white" stroke-width="2"/>
<path d="M33.0309 25.7658L33.0052 25.7143L32.9877 25.6595C32.9769 25.6258 32.9651 25.5869 32.9532 25.5441L32.3547 25.2038C32.2564 25.1479 32.1577 25.0938 32.0578 25.0402L32.0129 25.1691C31.8247 25.7086 31.5282 26.3998 30.7929 26.8204C30.6669 26.8945 30.5327 26.9498 30.395 26.9852C30.9536 27.2785 31.4994 27.6007 32.0301 27.9527L32.075 27.9825L32.1152 28.0184L33.0309 25.7658ZM33.0309 25.7658C33.4502 26.6064 33.2647 27.4537 32.5079 28.0162C32.4296 28.0719 32.3637 28.1333 32.308 28.1971M33.0309 25.7658L32.308 28.1971M17.2879 26.7638C18.6223 26.6694 19.9564 26.7182 21.2895 26.9099L21.2933 26.9104C22.2762 27.0568 23.2299 27.3033 24.1456 27.7048C24.2594 27.7539 24.3721 27.803 24.4838 27.8521C23.4476 27.2223 22.3322 26.7323 21.1586 26.3246L21.1371 26.3171L21.1161 26.3084C21.002 26.2608 20.8367 26.2273 20.6501 26.2273C20.4436 26.2273 20.2486 26.2242 20.0615 26.2212C19.5476 26.2129 19.0927 26.2056 18.6202 26.2668C18.5172 26.2814 18.4139 26.296 18.3106 26.3106C17.5367 26.4201 16.7573 26.5304 16.0012 26.665C15.9868 26.8895 16.0287 27.0657 16.1191 27.2112C16.2042 27.0783 16.3202 26.9807 16.4411 26.9177C16.5895 26.8404 16.7296 26.8223 16.7975 26.8159C16.8602 26.81 16.9214 26.8096 16.953 26.8097C16.9589 26.8086 16.9704 26.8064 16.9898 26.8023L17.2879 26.7638ZM17.2879 26.7638C17.1571 26.7671 17.0504 26.7896 16.9984 26.8005L17.2879 26.7638ZM32.308 28.1971C32.2497 28.1385 32.1839 28.0798 32.1285 28.0303L32.308 28.1971ZM28.4794 25.8052C28.5669 25.9571 28.6542 26.0914 28.7375 26.2127C27.6574 25.7694 26.5418 25.4227 25.4069 25.1665C25.0438 25.0651 24.6422 25.0013 24.3007 24.947C24.1522 24.9234 24.015 24.9016 23.8973 24.8792L23.0077 24.7106V25.4269C22.5669 25.241 22.1205 25.0712 21.6703 24.9144C21.3466 24.7837 20.9881 24.7273 20.6501 24.7273C20.4984 24.7273 20.3379 24.7246 20.1709 24.7219C19.8899 24.7172 19.5907 24.7122 19.2854 24.7191C20.1558 24.0352 21.091 23.5011 22.1077 23.1271L21.9524 22.124C22.945 22.1579 23.9327 22.2508 24.9167 22.4217L24.9193 22.4221C25.0446 22.4435 25.1695 22.4659 25.294 22.4895L25.3173 22.9258C25.345 23.4469 25.4894 23.9484 25.8382 24.3328C26.1961 24.7271 26.6773 24.8978 27.1717 24.93L27.196 24.9316H27.2204C27.5425 24.9316 27.7709 25.0054 27.9457 25.1204C28.1236 25.2375 28.2981 25.432 28.4532 25.7554L28.4654 25.7808L28.4794 25.8052ZM18.8839 23.1481C18.4904 23.426 18.1107 23.7282 17.7438 24.0532C17.4319 23.8123 17.172 23.5584 16.9629 23.273C17.6007 23.21 18.2405 23.1694 18.8839 23.1481ZM15.0996 22.8919C15.4077 23.8151 15.9387 24.4951 16.5882 25.0469C16.2054 25.1068 15.8223 25.171 15.4453 25.2419C15.3316 25.2545 15.2291 25.2877 15.1412 25.3289C15.099 25.1871 15.0361 25.0729 14.9839 24.9901C14.6374 24.4115 14.6771 23.4751 15.0949 22.8778L15.0996 22.8919ZM21.0496 20.6089C19.7527 20.6089 18.4149 20.6374 17.1067 20.7413C17.2849 20.4506 17.4915 20.1824 17.7225 19.9408C18.5759 19.0944 19.6273 18.6027 20.7827 18.395L20.7827 18.395L20.7852 18.3946C23.8991 17.8244 26.8182 18.3057 29.5382 19.9632L29.5389 19.9636C30.5074 20.5525 31.2674 21.3226 31.6792 22.2984L31.6803 22.3009C31.8247 22.6396 31.9246 22.9718 31.9786 23.3039C31.8613 23.2414 31.7459 23.1785 31.631 23.1132L31.6161 23.1047L31.6009 23.0969C29.54 22.0467 27.4262 21.3273 25.1722 20.9436C23.7909 20.7037 22.4157 20.6089 21.0496 20.6089ZM30.9188 17.9565L30.9189 17.9563L30.907 17.9488C28.5028 16.4255 25.8306 15.7982 23.0604 15.7501L23.0604 15.75H23.0474C21.7052 15.75 20.3769 15.8947 19.0356 16.3442L19.0356 16.3441L19.0277 16.3468C16.5457 17.2092 14.796 18.9201 14.1074 21.6374L14.1073 21.6373L14.1051 21.6467C14.0848 21.731 14.0494 21.7879 14.0268 21.8114L14.0034 21.8358L13.9822 21.8623C13.1446 22.91 13.0113 24.5396 13.6562 25.6904C13.4819 26.3601 13.4625 27.0171 13.6338 27.6423C13.8085 28.2794 14.168 28.8347 14.6747 29.3082C15.3044 29.9088 16.0265 30.2789 16.7581 30.5337C18.6268 31.2146 20.5738 31.501 22.5409 31.5487L22.5499 31.5489H22.559L22.6064 31.5489C23.6326 31.549 24.7732 31.5491 25.8917 31.2419C26.9036 31.6527 27.9785 32.0416 29.1213 32.1905C29.8831 32.2897 30.7674 32.3091 31.6281 31.8921C32.8074 31.3367 33.3029 30.2891 33.4628 29.1824C33.4636 29.179 33.4645 29.1757 33.4653 29.1725C34.756 28.1715 35.0849 26.5851 34.4022 25.1557C34.3921 25.1204 34.3828 25.0835 34.3756 25.0486C34.3722 25.032 34.3697 25.018 34.3679 25.0065C34.5463 23.9395 34.4416 22.9166 34.1011 21.9496C33.5028 20.1369 32.3534 18.9035 30.9188 17.9565ZM25.2773 29.8505C25.0581 29.9013 24.8354 29.9391 24.6083 29.9672L24.6291 29.5589C24.7289 29.6037 24.8289 29.6487 24.9291 29.6939C25.0449 29.746 25.161 29.7982 25.2773 29.8505ZM27.6984 27.4151C28.2434 27.6216 28.7784 27.8534 29.3012 28.1114C29.0511 28.1669 28.7689 28.189 28.4444 28.1956C28.2063 27.9193 27.9571 27.6597 27.6984 27.4151ZM30.3285 25.2546C30.2532 25.3639 30.1708 25.4431 30.0726 25.5038C29.9711 25.3617 29.8813 25.2314 29.7922 25.0789C29.7734 25.0405 29.7541 25.0025 29.7342 24.965C29.9328 25.0579 30.1308 25.1544 30.3285 25.2546ZM13.7186 25.7961C13.7194 25.7974 13.7198 25.7981 13.7198 25.7981C13.7197 25.7981 13.7193 25.7974 13.7186 25.7961Z" fill="white" stroke="white" stroke-width="1.5"/>
<path d="M33.702 25.431C33.6576 25.2922 33.6133 25.1071 33.6133 24.9683C33.7908 23.9965 33.702 23.071 33.3913 22.1918C32.8585 20.5722 31.8375 19.4616 30.5056 18.5824C28.2415 17.1478 25.711 16.5463 23.0474 16.5C21.7599 16.5 20.5169 16.6388 19.2738 17.0553C17.0097 17.842 15.4559 19.369 14.8344 21.8216C14.79 22.0067 14.7012 22.1918 14.568 22.3306C13.9021 23.1636 13.8133 24.5055 14.346 25.3848C14.4348 25.5236 14.4792 25.6624 14.3904 25.8475C14.0797 27.0044 14.346 27.9761 15.1895 28.7628C15.7223 29.2718 16.3438 29.5958 17.0097 29.8271C18.7855 30.475 20.6501 30.7526 22.559 30.7989C23.6689 30.7989 24.7788 30.7989 25.8442 30.475C25.933 30.4287 26.0218 30.475 26.1106 30.5213C27.1317 30.9377 28.1527 31.3079 29.2182 31.4468C29.9285 31.5393 30.6388 31.5393 31.3047 31.2154C32.1926 30.7989 32.5922 30.0122 32.7254 29.0405C32.7698 28.8554 32.8142 28.7165 32.9473 28.624C34.0128 27.8373 34.2792 26.5879 33.702 25.431ZM31.8375 29.2256C31.6155 30.0122 31.0828 30.4287 30.2837 30.5213C29.3514 30.5675 28.4635 30.3824 27.6644 30.0585C26.377 29.5495 25.1339 28.9479 23.8465 28.3926C23.003 28.0224 22.1151 27.791 21.1828 27.6522C19.8954 27.4671 18.6079 27.4208 17.3205 27.5134C17.1873 27.5134 17.0985 27.5597 16.9653 27.5597C16.8321 27.5597 16.699 27.5597 16.7434 27.7448C16.7434 27.8373 16.9209 27.8836 17.0097 27.8836C17.4981 27.9299 17.942 27.9299 18.4303 27.9761C20.1617 28.115 21.8043 28.4389 23.3581 29.2718C23.5357 29.3644 23.7133 29.4107 23.9353 29.5032C24.1128 29.5958 24.2904 29.6883 24.468 29.7346C23.2693 29.9197 22.0707 29.8734 20.872 29.7346C19.5846 29.5958 18.3416 29.3181 17.1429 28.8091C16.699 28.624 16.255 28.3463 15.8555 28.0224C15.2783 27.5597 15.1451 26.9118 15.3227 26.1714C15.3227 26.0789 15.4559 25.9863 15.5447 25.9863C16.5214 25.8012 17.5425 25.6624 18.5191 25.5236C19.2294 25.431 19.9398 25.4773 20.6501 25.4773C20.9164 25.4773 21.1828 25.5236 21.4048 25.6161C23.1362 26.2177 24.7788 27.0044 26.2438 28.1612C26.7321 28.5777 27.1317 29.0867 27.62 29.5495C27.7088 29.642 27.8864 29.7346 28.0196 29.7346C28.6855 29.6883 29.3514 29.5495 29.9729 29.2256C30.2393 29.0867 30.4612 28.9016 30.6832 28.7165C30.772 28.6703 30.8164 28.4852 30.772 28.3926C30.6832 28.2538 30.55 28.3463 30.4612 28.3926C29.7953 28.9016 28.9962 28.9479 28.1971 28.9479C28.1527 28.9479 28.0639 28.9016 28.0196 28.8554C26.9541 27.5597 25.6222 26.6342 24.1572 25.8938C24.024 25.8475 23.8909 25.755 23.8021 25.7087C23.8021 25.7087 23.7577 25.7087 23.7577 25.6161C24.246 25.7087 24.7344 25.755 25.2227 25.8938C27.4868 26.4028 29.6621 27.282 31.6155 28.5777C31.9263 28.8554 31.9263 28.8554 31.8375 29.2256ZM15.8111 22.6545C17.8088 22.3769 19.8066 22.3306 21.8487 22.4232C20.3393 22.9785 19.0075 23.8577 17.8088 25.0146C16.8765 24.413 16.1662 23.7189 15.8111 22.6545ZM26.0662 22.8859C27.9308 23.3487 29.6178 23.9965 31.3047 24.922C31.1272 25.431 30.9052 25.8938 30.4169 26.1714C30.1061 26.3565 29.7509 26.3103 29.529 26.0326C29.3958 25.8475 29.2626 25.6624 29.1294 25.431C28.7299 24.5981 28.1083 24.1816 27.2204 24.1816C26.5101 24.1353 26.1106 23.7189 26.0662 22.8859ZM32.7254 24.5518C32.237 24.2742 31.7487 24.0428 31.2603 23.7651C29.2626 22.7471 27.2204 22.053 25.0451 21.6828C23.7133 21.4514 22.3815 21.3589 21.0496 21.3589C19.407 21.3589 17.72 21.4051 16.1218 21.5902C16.0774 21.5902 15.9886 21.5902 15.8999 21.5902C16.1662 20.7573 16.6102 20.0169 17.1873 19.4153C18.164 18.4435 19.3626 17.8882 20.6501 17.6569C23.9353 17.0553 27.0429 17.5643 29.9285 19.3228C30.994 19.9706 31.8819 20.8498 32.3702 22.0067C32.7254 22.8396 32.8585 23.6726 32.7254 24.5518Z" fill="black"/>
</svg>
